<?xml version="1.0" encoding="utf-8"?>
<!-- Generator: Adobe Illustrator 29.6.1, SVG Export Plug-In . SVG Version: 9.03 Build 0)  -->
<svg version="1.0" id="Layer_1" xmlns="http://www.w3.org/2000/svg" xmlns:xlink="http://www.w3.org/1999/xlink" x="0px" y="0px"
	 viewBox="0 0 1080 1080" style="enable-background:new 0 0 1080 1080;" xml:space="preserve">
<style type="text/css">
	.st0{fill:#FFFFFF;}
	.st1{fill:#1398BF;}
	.st2{fill:url(#SVGID_1_);}
	.st3{fill:url(#SVGID_00000090283090173874529700000004370893255832307886_);}
</style>
<rect class="st0" width="1080" height="1080"/>
<g>
	<path d="M433.27,491.5c7,0,13.53,1.75,19.57,5.25c5.8,3.5,10.39,8.15,13.77,13.95c3.5,6.04,5.25,12.5,5.25,19.39
		c0,7.01-1.75,13.53-5.25,19.57c-3.38,5.92-7.97,10.57-13.77,13.95c-6.04,3.5-12.56,5.25-19.57,5.25h-28.27v45.84h-15.94V491.5
		H433.27z M433.09,552.93c6.28,0,11.66-2.23,16.13-6.7c4.47-4.47,6.7-9.78,6.7-15.94c0-6.28-2.24-11.66-6.7-16.13
		c-4.47-4.47-9.85-6.7-16.13-6.7h-28.08v45.48H433.09z"/>
	<path d="M491.8,614.89v-44.57c0-7.13,1.81-13.83,5.44-20.11c3.5-5.92,8.27-10.63,14.31-14.13c6.16-3.62,12.8-5.44,19.93-5.44
		c7.25,0,13.95,1.81,20.11,5.44c6.04,3.5,10.81,8.22,14.31,14.13c3.62,6.28,5.44,12.99,5.44,20.11H555.4
		c0-6.52-2.36-12.14-7.07-16.85c-4.59-4.59-10.21-6.89-16.85-6.89c-6.52,0-12.08,2.3-16.67,6.89c-4.71,4.71-7.07,10.33-7.07,16.85
		v44.57H491.8z"/>
	<path d="M598.88,512.52c-2.54-2.54-3.81-5.62-3.81-9.24c0-3.74,1.27-6.89,3.81-9.42c2.66-2.66,5.8-3.99,9.42-3.99
		c3.62,0,6.76,1.33,9.42,3.99c2.54,2.54,3.81,5.68,3.81,9.42c0,3.62-1.27,6.7-3.81,9.24c-2.66,2.66-5.8,3.99-9.42,3.99
		C604.68,516.51,601.54,515.18,598.88,512.52z M616.28,533.36v81.54h-15.94v-81.54H616.28z"/>
	<path d="M737.86,614.89v-54.18c0-3.99-1.45-7.37-4.35-10.15c-2.78-2.9-6.16-4.35-10.15-4.35c-3.99,0-7.43,1.45-10.33,4.35
		c-2.78,2.78-4.17,6.16-4.17,10.15v54.18h-15.94v-54.18c0-3.99-1.45-7.37-4.35-10.15c-2.78-2.9-6.16-4.35-10.15-4.35
		c-3.99,0-7.37,1.39-10.15,4.17c-2.9,2.78-4.35,6.16-4.35,10.15v54.36h-15.94V560.9c0-8.34,2.96-15.46,8.88-21.38
		c5.92-5.92,13.1-8.88,21.56-8.88c8.58,0,16.06,3.32,22.47,9.97c2.9-3.26,6.34-5.74,10.33-7.43c3.86-1.69,7.91-2.54,12.14-2.54
		c8.33,0,15.46,2.96,21.38,8.88c6.04,5.92,9.06,13.11,9.06,21.56v53.81H737.86z"/>
	<path d="M826.28,601.49c8.21,0,15.28-3.32,21.2-9.96l13.77,8.15c-4.35,5.92-9.6,10.45-15.76,13.59c-5.8,2.78-11.96,4.17-18.48,4.17
		c-7.61,0-14.74-1.81-21.38-5.44c-6.89-3.62-12.32-8.64-16.31-15.04c-4.35-6.89-6.52-14.5-6.52-22.83c0-8.81,2.17-16.67,6.52-23.55
		c3.99-6.28,9.48-11.17,16.49-14.68c6.64-3.5,13.71-5.25,21.2-5.25c8.94,0,16.97,2.42,24.1,7.25c7.73,5.19,13.17,12.68,16.31,22.47
		l-59.43,34.25c5.19,4.59,11.23,6.88,18.12,6.88H826.28z M799.64,581.19l19.57-11.41l0.36-0.18l0.18-0.18l0.91-0.54l0.36-0.18
		l0.72-0.36l3.81-2.17l0.18-0.18h0.18l0.18-0.18h0.18l0.54-0.36l0.54-0.36l0.72-0.36l3.62-2.17h0.18l0.18-0.18l0.18-0.18h0.18
		l0.18-0.18h0.18l0.36-0.18l0.18-0.18l0.36-0.18l0.36-0.18l0.18-0.18l0.36-0.18l3.08-1.81h0.18l0.36-0.18l4.53-2.72l1.81-1.09
		l0.72-0.36l0.36-0.18c-5.44-5.44-11.78-8.15-19.02-8.15c-7.49,0-13.95,2.6-19.39,7.79c-5.8,5.32-8.7,11.78-8.7,19.39
		C798.55,576.12,798.92,578.66,799.64,581.19z"/>
	<path d="M907.27,604.75c-8.09-8.21-12.32-18.42-12.68-30.62v-40.77h15.94v40.77c0.12,7.49,2.84,13.89,8.15,19.21
		c5.31,5.32,11.78,7.97,19.39,7.97c7.49,0,13.89-2.66,19.21-7.97c5.44-5.31,8.21-11.72,8.34-19.21v-40.77h15.94v40.77
		c-0.36,12.2-4.65,22.41-12.86,30.62c-8.09,8.22-18.3,12.44-30.62,12.68C925.75,617.19,915.48,612.96,907.27,604.75z"/>
	<g>
		<path d="M798.96,658.31l-6-13.75h-7.15v13.75h-4.06v-31.38h12.18c1.78,0,3.37,0.45,4.75,1.34c1.29,0.8,2.29,1.89,3,3.28
			c0.71,1.35,1.06,2.8,1.06,4.34c0,1.75-0.46,3.32-1.39,4.71c-0.99,1.54-2.4,2.66-4.25,3.37l6.28,14.35H798.96z M793.98,640.54
			c1.32,0,2.45-0.48,3.37-1.43c0.95-0.92,1.43-2.05,1.43-3.37c0-1.29-0.48-2.41-1.43-3.37c-0.92-0.92-2.05-1.39-3.37-1.39h-8.17
			v9.55H793.98z"/>
		<path d="M822.04,632.28c-0.65-0.65-0.97-1.43-0.97-2.35c0-0.95,0.32-1.75,0.97-2.4c0.68-0.68,1.48-1.01,2.4-1.01
			c0.92,0,1.72,0.34,2.4,1.01c0.65,0.65,0.97,1.45,0.97,2.4c0,0.92-0.32,1.71-0.97,2.35c-0.68,0.68-1.48,1.01-2.4,1.01
			C823.51,633.29,822.71,632.96,822.04,632.28z M826.47,637.59v20.77h-4.06v-20.77H826.47z"/>
		<path d="M868.37,626.97v21c-0.09,3.11-1.18,5.71-3.28,7.8c-2.06,2.09-4.66,3.17-7.8,3.23c-2,0-3.85-0.49-5.54-1.48
			c-1.69-0.99-3.03-2.31-4.01-3.97c-1.02-1.72-1.52-3.6-1.52-5.63c0-1.94,0.49-3.77,1.48-5.49c0.95-1.69,2.26-3.03,3.92-4.01
			c1.72-1.01,3.62-1.52,5.68-1.52c2.61,0,4.95,0.83,7.02,2.49v-12.41H868.37z M862.23,652.91c1.38-1.38,2.08-3.03,2.08-4.94
			c0-1.94-0.69-3.6-2.08-4.98c-1.35-1.35-3-2.03-4.94-2.03c-1.94,0-3.6,0.68-4.98,2.03c-1.35,1.38-2.03,3.05-2.03,4.98
			c0,1.91,0.68,3.55,2.03,4.94c1.39,1.35,3.05,2.03,4.98,2.03C859.23,654.94,860.88,654.26,862.23,652.91z"/>
		<path d="M888.17,649.59c-0.09-0.52-0.14-1.06-0.14-1.62c0-2.25,0.55-4.25,1.66-6c1.01-1.6,2.41-2.84,4.2-3.74
			c1.69-0.89,3.49-1.34,5.4-1.34c2.28,0,4.32,0.61,6.14,1.84c1.97,1.32,3.35,3.23,4.15,5.72l-11.49,6.55
			c-0.37-1.51-1.11-2.65-2.22-3.41l8.17-4.61c-1.39-1.39-3-2.08-4.85-2.08c-1.72,0-3.26,0.55-4.61,1.66
			c-1.39,1.14-2.2,2.57-2.45,4.29C890.35,647.17,889.03,648.08,888.17,649.59z M890.48,654.8c-0.71-0.68-1.06-1.51-1.06-2.49
			c0-0.99,0.35-1.83,1.06-2.54c0.68-0.71,1.51-1.06,2.49-1.06c0.98,0,1.83,0.35,2.54,1.06c0.68,0.71,1.01,1.55,1.01,2.54
			c0,0.99-0.34,1.82-1.01,2.49c-0.71,0.71-1.56,1.06-2.54,1.06C891.98,655.86,891.15,655.51,890.48,654.8z M897.86,654.85
			c0.4,0.06,0.8,0.09,1.2,0.09h0.05c2.09,0,3.89-0.85,5.4-2.54l3.51,2.08c-1.11,1.51-2.45,2.66-4.01,3.46
			c-1.48,0.71-3.05,1.06-4.71,1.06c-1.84,0-3.62-0.43-5.31-1.29C895.74,657.34,897.03,656.39,897.86,654.85z"/>
	</g>
	<path class="st1" d="M976.67,632.65c-3.62,6.52-8.51,11.66-14.68,15.4c-7.01,4.35-14.98,6.52-23.92,6.52h-12.68v-15.95h12.68
		c6.76,0,12.5-1.69,17.21-5.07c3.5-2.66,6.22-6.16,8.15-10.51c1.45-3.14,2.17-5.92,2.17-8.34h15.94
		C981.56,620.75,979.93,626.73,976.67,632.65z"/>
	<g>
		<linearGradient id="SVGID_1_" gradientUnits="userSpaceOnUse" x1="98.4409" y1="569.1862" x2="350.5712" y2="569.1862">
			<stop  offset="0.0444" style="stop-color:#1398BF"/>
			<stop  offset="0.1533" style="stop-color:#5EC6C9"/>
			<stop  offset="0.1709" style="stop-color:#6AC9CA"/>
			<stop  offset="0.2061" style="stop-color:#7DCDCA"/>
			<stop  offset="0.2423" style="stop-color:#88D0CA"/>
			<stop  offset="0.2809" style="stop-color:#8CD1CA"/>
			<stop  offset="0.617" style="stop-color:#60C6D1"/>
			<stop  offset="0.8073" style="stop-color:#9AD5CB"/>
			<stop  offset="1" style="stop-color:#CEE6C5"/>
		</linearGradient>
		<path class="st2" d="M295.59,451.87c-11.21-4.67-23.58-7-37.12-7c-16.34,0-30.82,3.04-43.42,9.1
			c-12.61,6.07-23.29,14.3-32.04,24.69c-8.75,10.39-15.41,22.41-19.96,36.07c-4.55,13.66-6.83,28.19-6.83,43.6v14.36
			c-5.14-7.47-9.05-15.76-11.73-24.86c-2.69-9.11-4.03-18.91-4.03-29.42c0-8.63,1.05-17.51,3.15-26.61s5.72-17.39,10.86-24.86
			l-36.07-22.06c-6.54,10.5-11.5,22.12-14.88,34.84c-3.39,12.73-5.08,25.62-5.08,38.69c0,24.05,5.13,45.76,15.41,65.14
			c10.27,19.38,24.39,35.02,42.37,46.92v63.03h42.02v-45.17c9.8,2.1,19.96,3.15,30.47,3.15c17.27,0,33.32-2.57,48.15-7.7
			c14.82-5.13,27.67-12.61,38.52-22.41c10.86-9.8,19.43-21.76,25.74-35.89c4.15-9.29,6.9-19.38,8.32-30.24
			c0.67-4.33,1.07-8.74,1.13-13.24v-88.8l-30.71,13.61C312.76,460.69,304.71,455.67,295.59,451.87z M197.89,604.55v-35.02
			c0-10.51,0.88-20.72,2.63-30.64c1.75-9.92,4.9-18.74,9.46-26.44c4.55-7.7,10.73-13.89,18.56-18.56c7.82-4.67,17.8-7,29.94-7
			c15.41,0,27.61,4.61,36.59,13.83c8.99,9.22,13.48,21.54,13.48,36.94c0,11.91-2.05,22.36-6.13,31.34
			c-4.09,8.99-9.69,16.46-16.81,22.41c-7.12,5.95-15.58,10.45-25.39,13.48c-9.81,3.04-20.31,4.55-31.51,4.55
			C217.97,609.46,207.7,607.83,197.89,604.55z"/>
		
			<linearGradient id="SVGID_00000130624496366022655470000003415991546059185586_" gradientUnits="userSpaceOnUse" x1="289.7959" y1="416.8876" x2="350.5712" y2="416.8876">
			<stop  offset="0.0444" style="stop-color:#1398BF"/>
			<stop  offset="0.1533" style="stop-color:#5EC6C9"/>
			<stop  offset="0.1709" style="stop-color:#6AC9CA"/>
			<stop  offset="0.2061" style="stop-color:#7DCDCA"/>
			<stop  offset="0.2423" style="stop-color:#88D0CA"/>
			<stop  offset="0.2809" style="stop-color:#8CD1CA"/>
			<stop  offset="0.617" style="stop-color:#60C6D1"/>
			<stop  offset="0.8073" style="stop-color:#9AD5CB"/>
			<stop  offset="1" style="stop-color:#CEE6C5"/>
		</linearGradient>
		<path style="fill:url(#SVGID_00000130624496366022655470000003415991546059185586_);" d="M320.18,447.28
			c8.42,0,15.53-2.89,21.31-8.68c6.06-6.05,9.08-13.28,9.08-21.71c0-8.42-3.02-15.52-9.08-21.31c-5.78-6.05-12.89-9.08-21.31-9.08
			c-8.42,0-15.65,3.03-21.71,9.08c-5.78,5.79-8.68,12.89-8.68,21.31c0,8.42,2.9,15.66,8.68,21.71
			C304.53,444.38,311.77,447.28,320.18,447.28z"/>
	</g>
</g>
</svg>
